<?xml version="1.0" encoding="utf-8"?>
<!DOCTYPE svg PUBLIC "-//W3C//DTD SVG 20010904//EN" "http://www.w3.org/TR/2001/REC-SVG-20010904/DTD/svg10.dtd">
<svg version="1.0" xmlns="http://www.w3.org/2000/svg" width="602pt" height="602pt" viewBox="0 0 602 602" style="" preserveAspectRatio="xMidYMid meet">
<g fill="#7393B3FF" stroke="#7393B3FF">
<path d="M 71.000 221.500 L 71.000 405.000 122.500 405.000 L 174.000 405.000 174.000 352.000 L 174.000 299.000 183.500 299.000 L 193.000 299.000 193.225 359.750 C 193.348 393.163 193.461 362.000 193.475 290.500 C 193.489 219.000 193.381 174.113 193.235 190.750 L 192.971 221.000 183.485 221.000 L 174.000 221.000 174.000 167.975 L 174.000 114.950 284.750 115.238 C 408.734 115.561 399.293 115.004 415.563 122.966 C 430.763 130.404 439.998 143.222 442.037 159.708 C 444.863 182.566 434.297 203.109 414.211 213.809 L 408.000 217.117 408.000 257.500 C 408.000 279.710 408.361 298.105 408.802 298.377 C 409.243 298.650 414.530 298.436 420.552 297.903 C 466.010 293.875 500.874 276.032 523.927 244.997 C 534.103 231.296 541.363 214.282 545.688 194.000 C 548.233 182.063 548.244 149.199 545.707 137.000 C 540.376 111.362 530.431 92.187 514.069 76.000 C 493.338 55.490 464.873 43.196 428.500 39.044 C 422.679 38.379 357.957 38.014 245.250 38.008 L 71.000 38.000 71.000 221.500 M 390.599 74.905 C 398.831 78.644 402.131 87.902 398.070 95.863 C 395.255 101.381 390.896 103.993 384.500 103.993 C 369.901 103.993 363.511 87.251 374.274 77.198 C 378.854 72.921 384.488 72.130 390.599 74.905 M 226.000 75.870 C 235.434 82.715 235.310 96.182 225.759 102.005 C 221.423 104.649 213.600 104.663 209.290 102.035 C 204.777 99.283 201.651 92.786 202.257 87.415 C 203.540 76.033 217.123 69.428 226.000 75.870 "/></g>
<g fill="#8A9A5BFF" stroke="#8A9A5BFF">
<path d="M 193.993 190.750 C 193.946 376.970 194.161 434.419 194.925 439.500 C 200.264 474.998 217.320 501.677 244.070 516.372 C 273.830 532.721 319.600 534.093 352.960 519.637 C 379.259 508.240 397.525 484.547 405.223 451.848 L 407.424 442.500 407.739 301.750 L 408.053 161.000 383.027 161.000 L 358.000 161.000 357.997 293.750 C 357.993 438.166 358.078 435.776 352.405 450.849 C 347.552 463.742 339.305 473.326 328.376 478.772 C 320.797 482.549 314.423 484.080 304.500 484.504 C 293.250 484.985 285.760 483.518 276.411 479.004 C 262.241 472.163 252.285 458.879 246.758 439.442 L 244.500 431.500 244.232 296.250 L 243.965 161.000 218.982 161.000 L 194.000 161.000 193.993 190.750 "/></g>
<g fill="#7393B3FF" stroke="#7393B3FF">
<path d="M 244.000 260.000 L 244.000 299.000 301.000 299.000 L 358.000 299.000 358.000 260.000 L 358.000 221.000 301.000 221.000 L 244.000 221.000 244.000 260.000 "/></g>
<g fill="#000000FF" stroke="#000000FF">
<path d="M 376.990 76.250 C 371.610 79.912 369.615 83.360 369.615 89.000 C 369.615 96.840 375.150 102.846 383.136 103.671 C 391.683 104.553 399.000 97.787 399.000 89.000 C 399.000 77.491 386.125 70.033 376.990 76.250 "/></g>
<g fill="#000000FF" stroke="#000000FF">
<path d="M 211.020 75.752 C 203.324 79.618 200.496 90.035 205.250 97.001 C 213.605 109.241 232.385 103.704 232.385 89.000 C 232.385 77.886 220.921 70.777 211.020 75.752 "/></g>
</svg>
